<mxfile host="65bd71144e">
    <diagram id="kgpKYQtTHZ0yAKxKKP6v" name="Page-1">
        <mxGraphModel dx="1202" dy="533" grid="1" gridSize="10" guides="1" tooltips="1" connect="1" arrows="1" fold="1" page="1" pageScale="1" pageWidth="850" pageHeight="1100" math="0" shadow="0">
            <root>
                <mxCell id="0"/>
                <mxCell id="1" parent="0"/>
                <mxCell id="2a5aPQu9iVHl2etbDJ2x-26" value="" style="endArrow=classic;html=1;rounded=0;" parent="1" edge="1">
                    <mxGeometry width="50" height="50" relative="1" as="geometry">
                        <mxPoint x="405" y="210" as="sourcePoint"/>
                        <mxPoint x="555" y="210" as="targetPoint"/>
                    </mxGeometry>
                </mxCell>
                <mxCell id="2a5aPQu9iVHl2etbDJ2x-85" value="" style="endArrow=classic;html=1;rounded=0;strokeColor=default;dashed=1;" parent="1" edge="1">
                    <mxGeometry width="50" height="50" relative="1" as="geometry">
                        <mxPoint x="558.56" y="420" as="sourcePoint"/>
                        <mxPoint x="408.56" y="420" as="targetPoint"/>
                    </mxGeometry>
                </mxCell>
                <mxCell id="2a5aPQu9iVHl2etbDJ2x-42" value="" style="endArrow=classic;html=1;rounded=0;" parent="1" edge="1">
                    <mxGeometry width="50" height="50" relative="1" as="geometry">
                        <mxPoint x="405" y="590" as="sourcePoint"/>
                        <mxPoint x="555" y="590" as="targetPoint"/>
                    </mxGeometry>
                </mxCell>
                <mxCell id="2a5aPQu9iVHl2etbDJ2x-79" value="" style="endArrow=classic;html=1;rounded=0;" parent="1" edge="1">
                    <mxGeometry width="50" height="50" relative="1" as="geometry">
                        <mxPoint x="240" y="550" as="sourcePoint"/>
                        <mxPoint x="395" y="550" as="targetPoint"/>
                    </mxGeometry>
                </mxCell>
                <mxCell id="2a5aPQu9iVHl2etbDJ2x-57" value="" style="rounded=0;whiteSpace=wrap;html=1;strokeColor=#000000;" parent="1" vertex="1">
                    <mxGeometry x="705" y="280" width="10" height="40" as="geometry"/>
                </mxCell>
                <mxCell id="2a5aPQu9iVHl2etbDJ2x-3" value="User" style="shape=umlActor;verticalLabelPosition=bottom;verticalAlign=top;html=1;outlineConnect=0;" parent="1" vertex="1">
                    <mxGeometry x="90" y="50" width="30" height="60" as="geometry"/>
                </mxCell>
                <mxCell id="2a5aPQu9iVHl2etbDJ2x-5" value="Webpage" style="rounded=0;whiteSpace=wrap;html=1;fillColor=#ffe6cc;strokeColor=#D70909;" parent="1" vertex="1">
                    <mxGeometry x="200" y="80" width="80" height="30" as="geometry"/>
                </mxCell>
                <mxCell id="2a5aPQu9iVHl2etbDJ2x-6" value="Uploader" style="rounded=0;whiteSpace=wrap;html=1;fillColor=#ffe6cc;strokeColor=#D70909;" parent="1" vertex="1">
                    <mxGeometry x="360" y="80" width="80" height="30" as="geometry"/>
                </mxCell>
                <mxCell id="2a5aPQu9iVHl2etbDJ2x-7" value="Espruino" style="rounded=0;whiteSpace=wrap;html=1;fillColor=#ffe6cc;strokeColor=#D70909;" parent="1" vertex="1">
                    <mxGeometry x="520" y="80" width="80" height="30" as="geometry"/>
                </mxCell>
                <mxCell id="2a5aPQu9iVHl2etbDJ2x-8" value="" style="shape=cylinder3;whiteSpace=wrap;html=1;boundedLbl=1;backgroundOutline=1;size=15;strokeColor=#6c8ebf;fillColor=#dae8fc;" parent="1" vertex="1">
                    <mxGeometry x="680" y="30" width="60" height="80" as="geometry"/>
                </mxCell>
                <mxCell id="2a5aPQu9iVHl2etbDJ2x-10" value="Repostitory" style="text;html=1;strokeColor=none;fillColor=none;align=center;verticalAlign=middle;whiteSpace=wrap;rounded=0;" parent="1" vertex="1">
                    <mxGeometry x="680" y="70" width="60" height="30" as="geometry"/>
                </mxCell>
                <mxCell id="2a5aPQu9iVHl2etbDJ2x-12" value="" style="endArrow=none;dashed=1;html=1;rounded=0;" parent="1" edge="1">
                    <mxGeometry width="50" height="50" relative="1" as="geometry">
                        <mxPoint x="104.6" y="370" as="sourcePoint"/>
                        <mxPoint x="104.6" y="150" as="targetPoint"/>
                    </mxGeometry>
                </mxCell>
                <mxCell id="2a5aPQu9iVHl2etbDJ2x-13" value="" style="endArrow=none;dashed=1;html=1;rounded=0;" parent="1" edge="1">
                    <mxGeometry width="50" height="50" relative="1" as="geometry">
                        <mxPoint x="239.6" y="370" as="sourcePoint"/>
                        <mxPoint x="239.6" y="150" as="targetPoint"/>
                    </mxGeometry>
                </mxCell>
                <mxCell id="2a5aPQu9iVHl2etbDJ2x-14" value="" style="endArrow=none;dashed=1;html=1;rounded=0;" parent="1" edge="1">
                    <mxGeometry width="50" height="50" relative="1" as="geometry">
                        <mxPoint x="399.5999999999999" y="370" as="sourcePoint"/>
                        <mxPoint x="399.5999999999999" y="150" as="targetPoint"/>
                    </mxGeometry>
                </mxCell>
                <mxCell id="2a5aPQu9iVHl2etbDJ2x-15" value="" style="endArrow=none;dashed=1;html=1;rounded=0;" parent="1" edge="1">
                    <mxGeometry width="50" height="50" relative="1" as="geometry">
                        <mxPoint x="559.5999999999999" y="370" as="sourcePoint"/>
                        <mxPoint x="559.5999999999999" y="150" as="targetPoint"/>
                    </mxGeometry>
                </mxCell>
                <mxCell id="2a5aPQu9iVHl2etbDJ2x-17" value="Load Webpage" style="text;html=1;strokeColor=none;fillColor=none;align=center;verticalAlign=middle;whiteSpace=wrap;rounded=0;" parent="1" vertex="1">
                    <mxGeometry x="140" y="140" width="60" height="30" as="geometry"/>
                </mxCell>
                <mxCell id="2a5aPQu9iVHl2etbDJ2x-22" value="Initiates Uploader" style="text;html=1;strokeColor=none;fillColor=none;align=center;verticalAlign=middle;whiteSpace=wrap;rounded=0;" parent="1" vertex="1">
                    <mxGeometry x="290" y="160" width="60" height="30" as="geometry"/>
                </mxCell>
                <mxCell id="2a5aPQu9iVHl2etbDJ2x-25" value="Connect to Device" style="text;html=1;strokeColor=none;fillColor=none;align=center;verticalAlign=middle;whiteSpace=wrap;rounded=0;" parent="1" vertex="1">
                    <mxGeometry x="450" y="180" width="60" height="30" as="geometry"/>
                </mxCell>
                <mxCell id="2a5aPQu9iVHl2etbDJ2x-28" value="Confirm Connection" style="text;html=1;strokeColor=none;fillColor=none;align=center;verticalAlign=middle;whiteSpace=wrap;rounded=0;" parent="1" vertex="1">
                    <mxGeometry x="450" y="220" width="60" height="30" as="geometry"/>
                </mxCell>
                <mxCell id="2a5aPQu9iVHl2etbDJ2x-29" value="" style="endArrow=none;dashed=1;html=1;rounded=0;startArrow=none;" parent="1" source="2a5aPQu9iVHl2etbDJ2x-57" edge="1">
                    <mxGeometry width="50" height="50" relative="1" as="geometry">
                        <mxPoint x="710" y="560" as="sourcePoint"/>
                        <mxPoint x="710" y="110" as="targetPoint"/>
                    </mxGeometry>
                </mxCell>
                <mxCell id="2a5aPQu9iVHl2etbDJ2x-31" value="Connect to Server" style="text;html=1;strokeColor=none;fillColor=none;align=center;verticalAlign=middle;whiteSpace=wrap;rounded=0;" parent="1" vertex="1">
                    <mxGeometry x="600" y="250" width="60" height="30" as="geometry"/>
                </mxCell>
                <mxCell id="2a5aPQu9iVHl2etbDJ2x-33" value="Retrieve Remote Code" style="text;html=1;strokeColor=none;fillColor=none;align=center;verticalAlign=middle;whiteSpace=wrap;rounded=0;" parent="1" vertex="1">
                    <mxGeometry x="440" y="290" width="80" height="30" as="geometry"/>
                </mxCell>
                <mxCell id="2a5aPQu9iVHl2etbDJ2x-34" value="" style="endArrow=none;dashed=1;html=1;rounded=0;" parent="1" edge="1">
                    <mxGeometry width="50" height="50" relative="1" as="geometry">
                        <mxPoint x="104.59999999999991" y="370" as="sourcePoint"/>
                        <mxPoint x="104.59999999999991" y="150" as="targetPoint"/>
                    </mxGeometry>
                </mxCell>
                <mxCell id="2a5aPQu9iVHl2etbDJ2x-35" value="" style="endArrow=none;dashed=1;html=1;rounded=0;" parent="1" edge="1">
                    <mxGeometry width="50" height="50" relative="1" as="geometry">
                        <mxPoint x="239.5999999999999" y="370" as="sourcePoint"/>
                        <mxPoint x="239.5999999999999" y="150" as="targetPoint"/>
                    </mxGeometry>
                </mxCell>
                <mxCell id="2a5aPQu9iVHl2etbDJ2x-36" value="" style="endArrow=none;dashed=1;html=1;rounded=0;" parent="1" edge="1">
                    <mxGeometry width="50" height="50" relative="1" as="geometry">
                        <mxPoint x="399.5999999999999" y="370" as="sourcePoint"/>
                        <mxPoint x="399.5999999999999" y="150" as="targetPoint"/>
                    </mxGeometry>
                </mxCell>
                <mxCell id="2a5aPQu9iVHl2etbDJ2x-37" value="" style="endArrow=none;dashed=1;html=1;rounded=0;" parent="1" edge="1">
                    <mxGeometry width="50" height="50" relative="1" as="geometry">
                        <mxPoint x="559.5999999999999" y="370" as="sourcePoint"/>
                        <mxPoint x="559.5999999999999" y="150" as="targetPoint"/>
                    </mxGeometry>
                </mxCell>
                <mxCell id="2a5aPQu9iVHl2etbDJ2x-38" value="" style="endArrow=none;dashed=1;html=1;rounded=0;" parent="1" target="2a5aPQu9iVHl2etbDJ2x-3" edge="1">
                    <mxGeometry width="50" height="50" relative="1" as="geometry">
                        <mxPoint x="105" y="720" as="sourcePoint"/>
                        <mxPoint x="104.59999999999991" y="150" as="targetPoint"/>
                    </mxGeometry>
                </mxCell>
                <mxCell id="2a5aPQu9iVHl2etbDJ2x-39" value="" style="endArrow=none;dashed=1;html=1;rounded=0;entryX=0.5;entryY=1;entryDx=0;entryDy=0;" parent="1" target="2a5aPQu9iVHl2etbDJ2x-5" edge="1">
                    <mxGeometry width="50" height="50" relative="1" as="geometry">
                        <mxPoint x="240" y="720" as="sourcePoint"/>
                        <mxPoint x="239.5999999999999" y="150" as="targetPoint"/>
                    </mxGeometry>
                </mxCell>
                <mxCell id="2a5aPQu9iVHl2etbDJ2x-40" value="" style="endArrow=none;dashed=1;html=1;rounded=0;startArrow=none;entryX=0.5;entryY=1;entryDx=0;entryDy=0;" parent="1" source="2a5aPQu9iVHl2etbDJ2x-62" target="2a5aPQu9iVHl2etbDJ2x-6" edge="1">
                    <mxGeometry width="50" height="50" relative="1" as="geometry">
                        <mxPoint x="399" y="560" as="sourcePoint"/>
                        <mxPoint x="399.5999999999999" y="150" as="targetPoint"/>
                    </mxGeometry>
                </mxCell>
                <mxCell id="2a5aPQu9iVHl2etbDJ2x-41" value="" style="endArrow=none;dashed=1;html=1;rounded=0;startArrow=none;entryX=0.5;entryY=1;entryDx=0;entryDy=0;" parent="1" source="2a5aPQu9iVHl2etbDJ2x-60" target="2a5aPQu9iVHl2etbDJ2x-7" edge="1">
                    <mxGeometry width="50" height="50" relative="1" as="geometry">
                        <mxPoint x="560" y="560" as="sourcePoint"/>
                        <mxPoint x="559.5999999999999" y="150" as="targetPoint"/>
                    </mxGeometry>
                </mxCell>
                <mxCell id="2a5aPQu9iVHl2etbDJ2x-43" value="Write Request To Device" style="text;html=1;strokeColor=none;fillColor=none;align=center;verticalAlign=middle;whiteSpace=wrap;rounded=0;" parent="1" vertex="1">
                    <mxGeometry x="440" y="560" width="80" height="30" as="geometry"/>
                </mxCell>
                <mxCell id="2a5aPQu9iVHl2etbDJ2x-45" value="Confirm Upload" style="text;html=1;strokeColor=none;fillColor=none;align=center;verticalAlign=middle;whiteSpace=wrap;rounded=0;" parent="1" vertex="1">
                    <mxGeometry x="450" y="380" width="60" height="30" as="geometry"/>
                </mxCell>
                <mxCell id="2a5aPQu9iVHl2etbDJ2x-47" value="Alert Webpage" style="text;html=1;strokeColor=none;fillColor=none;align=center;verticalAlign=middle;whiteSpace=wrap;rounded=0;" parent="1" vertex="1">
                    <mxGeometry x="290" y="410" width="60" height="30" as="geometry"/>
                </mxCell>
                <mxCell id="2a5aPQu9iVHl2etbDJ2x-50" value="Alert user" style="text;html=1;strokeColor=none;fillColor=none;align=center;verticalAlign=middle;whiteSpace=wrap;rounded=0;" parent="1" vertex="1">
                    <mxGeometry x="140" y="440" width="60" height="30" as="geometry"/>
                </mxCell>
                <mxCell id="2a5aPQu9iVHl2etbDJ2x-51" value="" style="endArrow=classic;html=1;rounded=0;" parent="1" edge="1">
                    <mxGeometry width="50" height="50" relative="1" as="geometry">
                        <mxPoint x="240" y="470" as="sourcePoint"/>
                        <mxPoint x="105" y="470" as="targetPoint"/>
                    </mxGeometry>
                </mxCell>
                <mxCell id="2a5aPQu9iVHl2etbDJ2x-60" value="" style="rounded=0;whiteSpace=wrap;html=1;strokeColor=#000000;" parent="1" vertex="1">
                    <mxGeometry x="555" y="210" width="12.35" height="420" as="geometry"/>
                </mxCell>
                <mxCell id="2a5aPQu9iVHl2etbDJ2x-59" value="" style="endArrow=none;dashed=1;html=1;rounded=0;" parent="1" target="2a5aPQu9iVHl2etbDJ2x-57" edge="1">
                    <mxGeometry width="50" height="50" relative="1" as="geometry">
                        <mxPoint x="710" y="720" as="sourcePoint"/>
                        <mxPoint x="709.5999999999999" y="150" as="targetPoint"/>
                    </mxGeometry>
                </mxCell>
                <mxCell id="2a5aPQu9iVHl2etbDJ2x-61" value="" style="endArrow=none;dashed=1;html=1;rounded=0;" parent="1" target="2a5aPQu9iVHl2etbDJ2x-60" edge="1">
                    <mxGeometry width="50" height="50" relative="1" as="geometry">
                        <mxPoint x="560" y="720" as="sourcePoint"/>
                        <mxPoint x="559.5999999999999" y="150" as="targetPoint"/>
                    </mxGeometry>
                </mxCell>
                <mxCell id="2a5aPQu9iVHl2etbDJ2x-30" value="" style="endArrow=classic;html=1;rounded=0;" parent="1" edge="1">
                    <mxGeometry width="50" height="50" relative="1" as="geometry">
                        <mxPoint x="405" y="280" as="sourcePoint"/>
                        <mxPoint x="705" y="280" as="targetPoint"/>
                    </mxGeometry>
                </mxCell>
                <mxCell id="2a5aPQu9iVHl2etbDJ2x-64" value="" style="endArrow=none;dashed=1;html=1;rounded=0;" parent="1" target="2a5aPQu9iVHl2etbDJ2x-62" edge="1">
                    <mxGeometry width="50" height="50" relative="1" as="geometry">
                        <mxPoint x="399" y="720" as="sourcePoint"/>
                        <mxPoint x="399.5999999999999" y="150" as="targetPoint"/>
                    </mxGeometry>
                </mxCell>
                <mxCell id="2a5aPQu9iVHl2etbDJ2x-62" value="" style="rounded=0;whiteSpace=wrap;html=1;strokeColor=#000000;" parent="1" vertex="1">
                    <mxGeometry x="395" y="190" width="13.01" height="470" as="geometry"/>
                </mxCell>
                <mxCell id="2a5aPQu9iVHl2etbDJ2x-27" value="" style="endArrow=classic;html=1;rounded=0;strokeColor=default;dashed=1;" parent="1" edge="1">
                    <mxGeometry width="50" height="50" relative="1" as="geometry">
                        <mxPoint x="555" y="250" as="sourcePoint"/>
                        <mxPoint x="410" y="250" as="targetPoint"/>
                    </mxGeometry>
                </mxCell>
                <mxCell id="2a5aPQu9iVHl2etbDJ2x-32" value="" style="endArrow=classic;html=1;rounded=0;" parent="1" edge="1">
                    <mxGeometry width="50" height="50" relative="1" as="geometry">
                        <mxPoint x="705" y="320" as="sourcePoint"/>
                        <mxPoint x="410" y="320" as="targetPoint"/>
                    </mxGeometry>
                </mxCell>
                <mxCell id="2a5aPQu9iVHl2etbDJ2x-23" value="" style="endArrow=classic;html=1;rounded=0;" parent="1" edge="1">
                    <mxGeometry width="50" height="50" relative="1" as="geometry">
                        <mxPoint x="240" y="190" as="sourcePoint"/>
                        <mxPoint x="395" y="190" as="targetPoint"/>
                    </mxGeometry>
                </mxCell>
                <mxCell id="2a5aPQu9iVHl2etbDJ2x-66" value="" style="rounded=0;whiteSpace=wrap;html=1;strokeColor=#000000;" parent="1" vertex="1">
                    <mxGeometry x="235" y="170" width="12.35" height="520" as="geometry"/>
                </mxCell>
                <mxCell id="2a5aPQu9iVHl2etbDJ2x-46" value="" style="endArrow=classic;html=1;rounded=0;" parent="1" edge="1">
                    <mxGeometry width="50" height="50" relative="1" as="geometry">
                        <mxPoint x="395" y="440" as="sourcePoint"/>
                        <mxPoint x="245" y="440" as="targetPoint"/>
                    </mxGeometry>
                </mxCell>
                <mxCell id="2a5aPQu9iVHl2etbDJ2x-16" value="" style="endArrow=classic;html=1;rounded=0;" parent="1" edge="1">
                    <mxGeometry width="50" height="50" relative="1" as="geometry">
                        <mxPoint x="102.5" y="170" as="sourcePoint"/>
                        <mxPoint x="237.5" y="170.43" as="targetPoint"/>
                    </mxGeometry>
                </mxCell>
                <mxCell id="2a5aPQu9iVHl2etbDJ2x-73" value="" style="endArrow=classic;html=1;rounded=0;" parent="1" edge="1">
                    <mxGeometry width="50" height="50" relative="1" as="geometry">
                        <mxPoint x="100" y="520" as="sourcePoint"/>
                        <mxPoint x="235" y="520.4300000000001" as="targetPoint"/>
                    </mxGeometry>
                </mxCell>
                <mxCell id="2a5aPQu9iVHl2etbDJ2x-74" value="Send Interaction Request" style="text;html=1;strokeColor=none;fillColor=none;align=center;verticalAlign=middle;whiteSpace=wrap;rounded=0;" parent="1" vertex="1">
                    <mxGeometry x="123.75" y="490" width="92.5" height="30" as="geometry"/>
                </mxCell>
                <mxCell id="2a5aPQu9iVHl2etbDJ2x-78" value="Send Request to Uploader" style="text;html=1;strokeColor=none;fillColor=none;align=center;verticalAlign=middle;whiteSpace=wrap;rounded=0;" parent="1" vertex="1">
                    <mxGeometry x="280" y="520" width="90" height="30" as="geometry"/>
                </mxCell>
                <mxCell id="2a5aPQu9iVHl2etbDJ2x-81" value="Send Response" style="text;html=1;strokeColor=none;fillColor=none;align=center;verticalAlign=middle;whiteSpace=wrap;rounded=0;" parent="1" vertex="1">
                    <mxGeometry x="450" y="599.1700000000001" width="60" height="30" as="geometry"/>
                </mxCell>
                <mxCell id="2a5aPQu9iVHl2etbDJ2x-82" value="" style="endArrow=classic;html=1;rounded=0;strokeColor=default;" parent="1" edge="1">
                    <mxGeometry width="50" height="50" relative="1" as="geometry">
                        <mxPoint x="555.0000000000002" y="629.1700000000001" as="sourcePoint"/>
                        <mxPoint x="410" y="629" as="targetPoint"/>
                    </mxGeometry>
                </mxCell>
                <mxCell id="2a5aPQu9iVHl2etbDJ2x-86" value="Pass Response to Page" style="text;html=1;strokeColor=none;fillColor=none;align=center;verticalAlign=middle;whiteSpace=wrap;rounded=0;" parent="1" vertex="1">
                    <mxGeometry x="268.55" y="629.17" width="102.89" height="30" as="geometry"/>
                </mxCell>
                <mxCell id="2a5aPQu9iVHl2etbDJ2x-87" value="" style="endArrow=classic;html=1;rounded=0;strokeColor=default;" parent="1" edge="1">
                    <mxGeometry width="50" height="50" relative="1" as="geometry">
                        <mxPoint x="392.11" y="659.1700000000001" as="sourcePoint"/>
                        <mxPoint x="247.11" y="659" as="targetPoint"/>
                    </mxGeometry>
                </mxCell>
                <mxCell id="2a5aPQu9iVHl2etbDJ2x-91" value="" style="endArrow=classic;html=1;rounded=0;" parent="1" edge="1">
                    <mxGeometry width="50" height="50" relative="1" as="geometry">
                        <mxPoint x="237.5" y="689.17" as="sourcePoint"/>
                        <mxPoint x="102.5" y="689.17" as="targetPoint"/>
                    </mxGeometry>
                </mxCell>
                <mxCell id="2a5aPQu9iVHl2etbDJ2x-92" value="Alert user" style="text;html=1;strokeColor=none;fillColor=none;align=center;verticalAlign=middle;whiteSpace=wrap;rounded=0;" parent="1" vertex="1">
                    <mxGeometry x="137.5" y="659.17" width="60" height="30" as="geometry"/>
                </mxCell>
                <mxCell id="2a5aPQu9iVHl2etbDJ2x-93" value="Interaction Loop" style="shape=umlFrame;whiteSpace=wrap;html=1;strokeColor=#d6b656;fillColor=#fff2cc;strokeWidth=3;" parent="1" vertex="1">
                    <mxGeometry x="44.99" y="480" width="615.01" height="250" as="geometry"/>
                </mxCell>
                <mxCell id="2" value="Upload Code to Device" style="text;html=1;strokeColor=none;fillColor=none;align=center;verticalAlign=middle;whiteSpace=wrap;rounded=0;" vertex="1" parent="1">
                    <mxGeometry x="440" y="330" width="80" height="30" as="geometry"/>
                </mxCell>
                <mxCell id="3" value="" style="endArrow=classic;html=1;rounded=0;" edge="1" parent="1">
                    <mxGeometry width="50" height="50" relative="1" as="geometry">
                        <mxPoint x="405" y="360" as="sourcePoint"/>
                        <mxPoint x="555" y="360" as="targetPoint"/>
                    </mxGeometry>
                </mxCell>
            </root>
        </mxGraphModel>
    </diagram>
</mxfile>